<?xml version="1.0" encoding="utf-8"?>
<!-- Generator: Adobe Illustrator 16.0.0, SVG Export Plug-In . SVG Version: 6.00 Build 0)  -->
<!DOCTYPE svg PUBLIC "-//W3C//DTD SVG 1.1//EN" "http://www.w3.org/Graphics/SVG/1.1/DTD/svg11.dtd">
<svg version="1.1" xmlns="http://www.w3.org/2000/svg" xmlns:xlink="http://www.w3.org/1999/xlink" x="0px" y="0px"
	 width="946.453px" height="962.952px" viewBox="0 0 946.453 962.952" enable-background="new 0 0 946.453 962.952"
	 xml:space="preserve">
<g id="Layer_3">
	<polyline fill-rule="evenodd" clip-rule="evenodd" fill="#82C840" points="429.433,309.608 611.927,425.39 316.865,443.978 
		306.666,373.651 422.724,309.608 	"/>
</g>
<g id="Layer_1">
	<polygon fill-rule="evenodd" clip-rule="evenodd" fill="#EA0000" points="316.865,352.101 286.488,416.285 332.697,479.21 	"/>
	<polygon fill-rule="evenodd" clip-rule="evenodd" fill="#00737C" points="584.878,575.248 412.255,552.482 448.474,525.808 	"/>
	<polygon fill-rule="evenodd" clip-rule="evenodd" fill="#0B5300" points="642.845,602.494 584.878,575.248 595.71,525.214 	"/>
	<polygon fill-rule="evenodd" clip-rule="evenodd" fill="#FF5100" points="374.089,394.228 316.864,352.101 332.696,479.21 	"/>
	<polygon fill-rule="evenodd" clip-rule="evenodd" fill="#82C840" points="448.474,525.808 374.089,394.228 332.697,479.21 	"/>
	<polygon fill-rule="evenodd" clip-rule="evenodd" fill="#070354" points="801.283,704.585 595.71,525.214 747.957,607.015 	"/>
	<polygon fill-rule="evenodd" clip-rule="evenodd" fill="#302C9F" points="801.283,704.585 595.71,525.214 642.845,602.494 	"/>
	<polygon fill-rule="evenodd" clip-rule="evenodd" fill="#1C7400" points="584.878,575.248 448.474,525.808 595.71,525.214 	"/>
	<polygon fill-rule="evenodd" clip-rule="evenodd" fill="#3E9E00" points="448.474,525.808 422.724,414.974 595.71,525.214 	"/>
	<polygon fill-rule="evenodd" clip-rule="evenodd" fill="#B4DF88" points="448.474,525.808 374.089,394.228 422.724,414.974 	"/>
	<polygon fill-rule="evenodd" clip-rule="evenodd" fill="#07025C" points="747.957,607.015 595.71,525.214 715.738,547.773 	"/>
	<polygon fill-rule="evenodd" clip-rule="evenodd" fill="#000E43" points="715.738,547.773 595.71,525.214 671.582,474.447 	"/>
	<polygon fill-rule="evenodd" clip-rule="evenodd" fill="#0050A8" points="595.71,525.214 422.725,414.974 611.927,425.39 	"/>
	<polygon fill-rule="evenodd" clip-rule="evenodd" fill="#001E6D" points="595.71,525.214 611.927,425.39 671.582,474.447 	"/>
	<polygon fill-rule="evenodd" clip-rule="evenodd" fill="#FFC700" points="332.927,241.643 429.433,309.608 374.089,394.228 	"/>
	<polygon fill-rule="evenodd" clip-rule="evenodd" fill="#B70000" points="332.927,241.643 400.349,206.918 429.433,309.608 	"/>
	<polygon fill-rule="evenodd" clip-rule="evenodd" fill="#C80000" points="332.927,241.643 400.349,206.918 308.634,182.658 	"/>
	<polygon fill-rule="evenodd" clip-rule="evenodd" fill="#EA0000" points="218.583,202.014 332.928,241.643 308.634,182.658 	"/>
	<polygon fill-rule="evenodd" clip-rule="evenodd" fill="#FA251C" points="36.556,140.721 226.199,234.363 218.583,202.014 	"/>
	<polygon fill-rule="evenodd" clip-rule="evenodd" fill="#FF8C00" points="316.865,352.101 374.09,394.228 332.927,241.643 	"/>
	<polygon fill-rule="evenodd" clip-rule="evenodd" fill="#D80000" points="218.583,202.014 226.199,234.363 332.928,241.643 	"/>
	<polygon fill-rule="evenodd" clip-rule="evenodd" fill="#F20600" points="226.199,234.363 286.488,416.284 316.865,352.102 	"/>
	<polygon fill-rule="evenodd" clip-rule="evenodd" fill="#66D6D7" points="412.255,552.482 332.696,479.21 448.474,525.808 	"/>
	<polygon fill-rule="evenodd" clip-rule="evenodd" fill="#A70000" points="226.199,234.363 316.865,352.102 332.927,241.644 	"/>
	<rect x="158.509" y="852.886" fill="#FFC700" width="631.377" height="60"/>
	<g>
		<defs>
			<rect id="SVGID_1_" x="-134.114" y="-134.114" width="1200" height="1200"/>
		</defs>
		<clipPath id="SVGID_2_">
			<use xlink:href="#SVGID_1_"  overflow="visible"/>
		</clipPath>
		<path clip-path="url(#SVGID_2_)" fill="#001E6D" d="M216.218,809.137v7.996c0,14.14-6.665,21.207-19.989,21.207h-10.778
			c-13.328,0-19.99-7.067-19.99-21.207V734.74c0-14.137,6.662-21.206,19.99-21.206h10.778c13.324,0,19.989,7.069,19.989,21.206
			v14.08h-16.687v-12.863c0-4.867-2.494-7.301-7.474-7.301h-3.303c-4.405,0-6.605,2.434-6.605,7.301v79.96
			c0,4.867,2.2,7.301,6.605,7.301h4.172c4.402,0,6.605-2.434,6.605-7.301v-6.779H216.218z"/>
		<polygon clip-path="url(#SVGID_2_)" fill="#001E6D" points="266.454,838.34 266.454,781.673 245.943,781.673 245.943,838.34 
			229.255,838.34 229.255,713.533 245.943,713.533 245.943,766.55 266.454,766.55 266.454,713.533 283.141,713.533 283.141,838.34 
					"/>
		<path clip-path="url(#SVGID_2_)" fill="#001E6D" d="M353.018,713.533V814.7c0,15.762-6.722,23.641-20.163,23.641h-14.08
			c-13.328,0-19.99-7.937-19.99-23.814V713.533h16.687v101.515c0,5.448,2.434,8.17,7.301,8.17h6.779c4.52,0,6.779-2.722,6.779-8.17
			V713.533H353.018z"/>
		<path clip-path="url(#SVGID_2_)" fill="#001E6D" d="M368.662,713.533h30.419c13.442,0,20.164,7.127,20.164,21.381v37.025
			c0,14.14-6.666,21.207-19.99,21.207h-13.906v45.194h-16.687V713.533z M385.349,778.023h10.604c4.402,0,6.605-2.434,6.605-7.301
			v-34.766c0-4.867-2.494-7.301-7.475-7.301h-9.734V778.023z"/>
		<path clip-path="url(#SVGID_2_)" fill="#001E6D" d="M448.273,838.34h-16.688V734.914c0-14.254,6.663-21.381,19.991-21.381h12.515
			c13.325,0,19.99,7.127,19.99,21.381V838.34h-16.687v-45.716h-19.121V838.34z M467.394,777.501v-41.545
			c0-4.867-2.434-7.301-7.301-7.301h-4.519c-4.867,0-7.301,2.434-7.301,7.301v41.545H467.394z"/>
		<polygon clip-path="url(#SVGID_2_)" fill="#001E6D" points="532.75,786.888 548.22,713.534 566.647,713.534 566.647,838.34 
			549.958,838.34 551.697,756.642 539.181,815.743 526.319,815.743 513.803,756.642 515.542,838.34 498.855,838.34 498.855,713.534 
			517.28,713.534 		"/>
		<rect x="582.29" y="713.533" clip-path="url(#SVGID_2_)" fill="#001E6D" width="16.687" height="124.808"/>
		<path clip-path="url(#SVGID_2_)" fill="#001E6D" d="M614.621,713.533h32.679c12.746,0,19.12,7.127,19.12,21.381v30.768
			c0,10.893-3.303,17.79-9.908,20.686l11.646,51.974h-15.818l-10.95-50.409h-10.082v50.409h-16.687V713.533z M631.307,773.677
			h10.951c4.98,0,7.475-3.013,7.475-9.039v-26.943c0-6.024-2.494-9.039-7.475-9.039h-10.951V773.677z"/>
		<polygon clip-path="url(#SVGID_2_)" fill="#001E6D" points="706.919,728.656 706.919,838.34 690.232,838.34 690.232,728.656 
			674.24,728.656 674.24,713.533 722.911,713.533 722.911,728.656 		"/>
		<path clip-path="url(#SVGID_2_)" fill="#001E6D" d="M751.765,838.34c-13.444,0-20.164-7.067-20.164-21.207v-82.22
			c0-14.254,6.662-21.381,19.99-21.381h15.992c13.324,0,19.99,7.127,19.99,21.381v82.22c0,14.14-6.723,21.207-20.164,21.207H751.765
			z M755.763,823.217h8.518c4.402,0,6.604-2.434,6.604-7.301v-79.96c0-4.867-2.493-7.301-7.474-7.301h-7.822
			c-4.867,0-7.301,2.434-7.301,7.301v79.96C748.289,820.784,750.779,823.217,755.763,823.217"/>
		<path clip-path="url(#SVGID_2_)" fill="#020202" d="M192.809,882.02c0,4.42,0.052,16.433,0.26,17.94
			c1.248,0.208,4.992,0.572,6.604,0.729l0.26,1.092c-1.716-0.104-7.54-0.208-9.933-0.208c-2.599,0-7.54,0.104-8.996,0.208
			l0.208-1.092c0.781-0.104,4.16-0.468,5.513-0.729c0.207-2.288,0.26-13.364,0.26-18.2v-2.08c0-1.664-0.053-11.129-0.26-12.896
			c-0.988-0.364-4.316-0.624-5.564-0.729l-0.157-1.092c1.561,0,9.153-0.052,11.545-0.052c5.668,0,9.985,0.468,12.532,1.508
			c4.628,1.924,5.096,5.097,5.096,6.396c0,3.536-1.508,6.188-3.588,8.269c-3.432,3.432-9.048,4.836-10.921,5.096l0.157-1.3
			c1.872-0.468,8.164-2.34,8.164-10.192c0-3.172-1.56-5.771-4.212-7.072c-1.716-0.832-4.42-1.145-6.708-1.145
			c-0.208,1.508-0.26,8.893-0.26,13.365V882.02z"/>
		<path clip-path="url(#SVGID_2_)" fill="#020202" d="M230.561,879.627c0-1.871-0.053-11.855-0.261-12.844
			c-0.884-0.208-4.42-0.521-5.563-0.624l-0.157-1.093l11.233-0.052c4.939,0,11.128,0.052,14.664,1.456
			c2.756,1.092,4.472,3.068,4.472,5.929c0,3.276-3.328,7.592-7.332,9.828c0.572,1.301,8.944,14.926,14.352,20.645l-2.287,0.365
			c-3.641-1.665-17.473-17.63-18.305-18.722c-1.976,0.156-4.108,0.312-4.992,0.312v1.352c0,3.38,0.104,11.39,0.26,13.78
			c0.884,0.261,4.316,0.624,5.46,0.729l0.208,1.092c-1.3-0.104-6.553-0.208-8.945-0.208c-2.131,0-7.592,0.104-8.788,0.208
			l0.208-1.092c0.728-0.052,4.056-0.364,5.512-0.729c0.208-1.508,0.261-11.7,0.261-17.16V879.627z M236.385,883.216
			c1.871,0,4.107-0.156,6.344-0.988c2.236-0.832,5.927-3.224,5.927-8.372c0-3.327-3.015-7.385-12.011-7.385
			c-0.156,2.133-0.26,11.44-0.26,15.133V883.216z"/>
		<path clip-path="url(#SVGID_2_)" fill="#020202" d="M279.284,896.581c-3.797-3.9-4.993-7.696-4.993-12.584
			c0-10.297,8.477-19.657,22.828-19.657c5.513,0,9.881,0.885,14.406,4.212c4.108,3.017,6.292,8.061,6.292,12.896
			c0,12.74-9.672,20.957-22.465,20.957C290.1,902.405,284.119,901.521,279.284,896.581 M311.473,885.245
			c0-11.025-7.645-18.93-16.277-18.93c-7.124,0-14.924,4.785-14.924,15.497c0,9.309,7.488,18.461,17.628,18.461
			C305.336,900.273,311.473,893.565,311.473,885.245"/>
		<path clip-path="url(#SVGID_2_)" fill="#020202" d="M338.512,879.68c0-2.34-0.104-11.856-0.364-12.896
			c-1.353-0.26-4.265-0.624-5.513-0.729l-0.103-1.092c0.78,0.104,6.396,0.208,8.58,0.208c1.82,0,8.009-0.208,12.013-0.208
			c6.084,0,11.232,0.729,14.665,2.393c6.084,2.912,8.527,7.852,8.527,12.584c0,10.973-8.632,21.736-28.601,21.736
			c-2.912,0-13.936,0.053-15.184,0.104l0.208-1.092c0.988-0.052,4.16-0.364,5.408-0.729c0.26-0.884,0.364-10.14,0.364-16.173V879.68
			z M344.44,884.256c0,2.808,0.156,12.584,0.364,14.456c2.288,0.884,4.317,0.937,5.668,0.937c9.933,0,19.449-5.824,19.449-16.9
			c0-4.421-1.352-8.789-5.669-12.014c-3.795-2.808-10.036-3.848-14.872-3.848c-1.196,0-3.484,0.104-4.576,0.312
			c-0.156,0.779-0.364,12.74-0.364,15.028V884.256z"/>
		<path clip-path="url(#SVGID_2_)" fill="#020202" d="M396.127,878.536c0-4.68-0.104-10.296-0.26-11.752
			c-1.093-0.26-2.705-0.521-4.108-0.729l-0.156-1.092c1.456,0.104,4.784,0.208,8.788,0.208c2.392,0,6.396-0.104,7.696-0.208
			l-0.26,1.092c-1.404,0.156-3.744,0.416-5.408,0.729c-0.156,0.884-0.26,7.488-0.26,11.96v6.917c0,11.023,4.68,14.768,10.296,14.768
			c3.433,0,5.721-0.832,7.488-2.497c2.809-2.65,3.485-7.227,3.485-13.467v-4.784c0-1.664-0.052-11.181-0.26-12.896
			c-1.196-0.208-4.316-0.624-5.668-0.729l-0.364-1.092c1.3,0.104,5.2,0.208,8.424,0.208c2.704,0,5.46-0.104,6.344-0.208
			l-0.312,1.092c-0.884,0.208-2.288,0.416-3.64,0.729c-0.156,0.779-0.261,7.28-0.261,8.684v2.496c0,2.028,0.105,4.524,0.105,6.396
			c0,5.877-1.092,10.869-5.097,14.404c-2.391,2.133-5.719,3.641-10.868,3.641c-10.765,0-15.704-6.656-15.704-15.757V878.536z"/>
		<path clip-path="url(#SVGID_2_)" fill="#020202" d="M481.409,876.508c0-0.988-0.156-3.433-0.312-4.316
			c-0.989-2.287-5.825-6.032-12.533-6.032c-9.464,0-15.444,6.864-15.444,14.977c0,10.14,8.372,18.721,19.345,18.721
			c3.952,0,8.633-0.624,12.324-2.809l-0.728,2.236c-1.196,0.988-6.449,3.12-14.613,3.12c-1.924,0-7.592-0.208-11.805-2.288
			c-6.759-3.328-10.763-9.257-10.763-15.913c0-7.175,3.639-12.48,8.216-15.548c5.408-3.641,10.245-4.316,15.497-4.316
			c4.576,0,9.412,0.937,10.868,1.353c0.312-0.677,0.937-4.005,1.092-4.629l1.196-0.26c-0.78,5.721-1.092,11.129-1.145,16.068
			L481.409,876.508z"/>
		<path clip-path="url(#SVGID_2_)" fill="#020202" d="M532.577,876.508c0-0.988-0.156-3.433-0.312-4.316
			c-0.989-2.287-5.825-6.032-12.533-6.032c-9.464,0-15.444,6.864-15.444,14.977c0,10.14,8.372,18.721,19.345,18.721
			c3.952,0,8.633-0.624,12.324-2.809l-0.728,2.236c-1.196,0.988-6.449,3.12-14.613,3.12c-1.924,0-7.592-0.208-11.805-2.288
			c-6.76-3.328-10.764-9.257-10.764-15.913c0-7.175,3.64-12.48,8.216-15.548c5.408-3.641,10.245-4.316,15.497-4.316
			c4.576,0,9.412,0.937,10.868,1.353c0.312-0.677,0.937-4.005,1.092-4.629l1.196-0.26c-0.78,5.721-1.092,11.129-1.145,16.068
			L532.577,876.508z"/>
		<path clip-path="url(#SVGID_2_)" fill="#020202" d="M562.058,883.476c0,6.761,0.052,15.444,0.261,16.484
			c1.3,0.312,4.42,0.624,5.46,0.729l0.26,1.092c-1.144-0.104-6.552-0.208-9.776-0.208c-1.768,0-6.553,0.104-8.112,0.208l0.208-1.092
			c0.884-0.052,4.42-0.521,5.512-0.729c0.21-2.184,0.261-11.804,0.261-16.9v-3.068c0-1.716-0.051-11.44-0.261-13.208
			c-1.04-0.208-4.472-0.624-5.46-0.729l-0.26-1.092c0.988,0.104,5.772,0.208,9.88,0.208c2.652,0,7.125-0.104,8.009-0.208
			l-0.26,1.092c-1.04,0.104-3.589,0.521-5.46,0.729c-0.209,1.04-0.261,7.072-0.261,13.469V883.476z"/>
		<path clip-path="url(#SVGID_2_)" fill="#020202" d="M588.006,896.581c-3.797-3.9-4.992-7.696-4.992-12.584
			c0-10.297,8.477-19.657,22.827-19.657c5.514,0,9.882,0.885,14.406,4.212c4.108,3.017,6.292,8.061,6.292,12.896
			c0,12.74-9.672,20.957-22.465,20.957C598.823,902.405,592.841,901.521,588.006,896.581 M620.196,885.245
			c0-11.025-7.646-18.93-16.277-18.93c-7.124,0-14.924,4.785-14.924,15.497c0,9.309,7.488,18.461,17.628,18.461
			C614.059,900.273,620.196,893.565,620.196,885.245"/>
		<path clip-path="url(#SVGID_2_)" fill="#020202" d="M641.358,865.171c2.912-0.104,7.801-0.156,11.856-0.364
			c1.144,1.769,11.597,14.873,12.48,15.809c1.352,1.456,9.62,11.493,11.284,12.896c0-5.771-0.052-24.024-1.092-26.729
			c-1.04-0.208-3.796-0.624-5.252-0.729l-0.261-1.092c0.988,0.104,6.604,0.208,7.749,0.208c1.144,0,5.46-0.104,6.552-0.208
			l-0.208,1.092c-0.676,0.104-2.548,0.521-3.952,0.729c-0.624,2.027-0.885,9.36-0.987,11.024
			c-0.156,2.444-0.572,24.284-0.885,26.364c-1.56-1.455-15.965-18.252-17.16-19.604c-0.729-0.78-10.608-12.845-12.324-14.82
			c-0.156,1.04,0.468,28.341,1.144,30.213c0.78,0.261,4.681,0.624,5.668,0.729l0.156,1.092c-0.937-0.104-6.345-0.208-7.696-0.208
			c-1.509,0-5.564,0.104-7.072,0.208l0.156-1.092c1.456-0.207,3.12-0.364,4.316-0.729c0.884-2.184,1.455-31.356,1.455-33.073
			c-1.195-0.26-3.744-0.52-5.72-0.624L641.358,865.171z"/>
		<path clip-path="url(#SVGID_2_)" fill="#020202" d="M705.37,881.344c0-4.681-0.156-12.949-0.364-14.561
			c-0.988-0.208-4.16-0.572-5.408-0.729l-0.208-1.092c1.248,0.052,2.964,0.104,4.68,0.156c1.717,0,3.433,0.052,4.576,0.052
			c1.663,0,13.885,0,15.288-0.364c0.157-0.624,0.313-1.508,0.416-2.443l1.197-0.209c-0.261,1.093-0.937,9.152-1.04,10.765
			l-1.145-0.364c0-0.363,0.053-2.703,0-3.744c-0.936-1.508-8.944-2.184-11.7-2.184c-0.156,0.729-0.364,10.765-0.364,13.832v1.041
			c4.473,0,9.517-0.364,10.765-0.832c0.26-0.78,0.416-1.509,0.521-2.236l1.092-0.104c-0.157,0.937-1.092,8.061-1.353,9.725
			l-0.987-0.416c0.052-1.092,0.104-2.444,0.104-3.484c-1.612-0.832-5.668-1.144-10.141-1.144v1.04
			c0,3.172,0.208,14.509,0.364,16.017c5.2,0,10.089-0.416,12.48-1.769c0.572-1.819,0.831-3.432,1.144-4.576l1.196-0.312
			c-0.364,1.508-1.509,9.412-1.717,12.012l-1.091-0.207c0-1.404,0-2.341-0.053-3.173c-1.508-0.26-13.052-0.468-16.328-0.468
			c-1.768,0-5.876,0.104-7.904,0.208l0.26-1.092c0.832-0.052,3.952-0.364,5.356-0.729c0.208-0.936,0.364-10.504,0.364-16.225
			V881.344z"/>
		<path clip-path="url(#SVGID_2_)" fill="#020202" d="M743.693,906.825c0.104-0.728,0.832-6.5,0.832-8.528
			c0-1.352,0.312-6.968,0.155-8.216l1.196,0.312c-0.052,0.677,0.208,3.641,0.364,4.576c1.404,3.328,4.473,5.67,8.06,5.67
			c4.108,0,7.385-2.706,7.385-6.554c0-4.212-3.276-6.292-6.656-8.477c-5.096-3.328-9.152-6.24-9.152-12.116
			c0-4.056,3.017-9.152,10.712-9.152c3.068,0,5.773,0.624,7.021,0.937c0.363-1.248,0.623-2.809,0.936-4.213l1.196-0.156
			c-0.729,5.148-1.248,9.984-1.248,14.249l-1.197-0.52c0-1.769-0.103-3.017-0.208-3.952c-0.571-1.873-3.275-4.681-6.916-4.681
			c-4.472,0-6.344,2.86-6.344,5.2c0,3.38,3.536,5.2,7.488,7.696c4.315,2.704,8.685,5.616,8.685,12.169
			c0,7.228-5.72,11.336-12.792,11.336c-2.496,0-5.721-0.519-7.177-1.3c-0.26,0.987-0.78,3.483-1.144,5.408L743.693,906.825z"/>
	</g>
</g>
<g id="Layer_2" display="none">
	<polygon display="inline" fill-rule="evenodd" clip-rule="evenodd" fill="#FFC700" points="374.089,394.228 500.884,281.068 
		422.724,414.974 	"/>
	<polygon display="inline" fill-rule="evenodd" clip-rule="evenodd" fill="#430253" points="422.724,414.974 622.994,377.483 
		611.927,425.39 	"/>
	<polygon display="inline" fill-rule="evenodd" clip-rule="evenodd" fill="#85238E" points="422.724,414.974 676.949,315.841 
		622.994,377.483 	"/>
	<polygon display="inline" fill-rule="evenodd" clip-rule="evenodd" fill="#FA008C" points="422.724,414.974 733.83,253.811 
		676.949,315.841 	"/>
	<polygon display="inline" fill-rule="evenodd" clip-rule="evenodd" fill="#F2008C" points="500.884,281.068 859.771,15.2 
		839.228,119.03 	"/>
	<polygon display="inline" fill-rule="evenodd" clip-rule="evenodd" fill="#FF67C7" points="500.884,281.068 839.228,119.03 
		733.83,253.812 	"/>
	<polygon display="inline" fill-rule="evenodd" clip-rule="evenodd" fill="#E10050" points="422.724,414.974 500.884,281.068 
		733.83,253.811 	"/>
	<polygon display="inline" fill-rule="evenodd" clip-rule="evenodd" fill="#FFE000" points="429.433,309.608 500.884,281.067 
		374.089,394.229 	"/>
	<polygon display="inline" fill-rule="evenodd" clip-rule="evenodd" fill="#FFC700" points="429.433,309.608 859.771,15.201 
		500.884,281.067 	"/>
	<polygon display="inline" fill-rule="evenodd" clip-rule="evenodd" fill="#FFF900" points="429.433,309.608 743.867,64.321 
		859.771,15.201 	"/>
</g>
</svg>
