<?xml version="1.0" encoding="utf-8"?>
<!-- Generator: Adobe Illustrator 16.0.0, SVG Export Plug-In . SVG Version: 6.00 Build 0)  -->
<!DOCTYPE svg PUBLIC "-//W3C//DTD SVG 1.1//EN" "http://www.w3.org/Graphics/SVG/1.1/DTD/svg11.dtd">
<svg version="1.1" id="Layer_1" xmlns="http://www.w3.org/2000/svg" xmlns:xlink="http://www.w3.org/1999/xlink" x="0px" y="0px"
	 width="946.453px" height="962.953px" viewBox="0 0 946.453 962.953" enable-background="new 0 0 946.453 962.953"
	 xml:space="preserve">
<g id="Layer_3" display="none">
	<polyline display="inline" fill="#82C840" points="429.433,309.608 611.927,425.39 316.865,443.979 306.666,373.651 
		422.724,309.608 	"/>
</g>
<g id="Layer_1_1_" display="none">
	<polygon display="inline" fill="#EA0000" points="316.865,352.101 286.488,416.285 332.697,479.21 	"/>
	<polygon display="inline" fill="#00737C" points="584.878,575.248 412.255,552.482 448.474,525.808 	"/>
	<polygon display="inline" fill="#0B5300" points="642.845,602.494 584.878,575.248 595.71,525.214 	"/>
	<polygon display="inline" fill="#FF5100" points="374.089,394.228 316.864,352.101 332.696,479.21 	"/>
	<polygon display="inline" fill="#82C840" points="448.474,525.808 374.089,394.228 332.697,479.21 	"/>
	<polygon display="inline" fill="#070354" points="801.283,704.585 595.71,525.214 747.957,607.015 	"/>
	<polygon display="inline" fill="#302C9F" points="801.283,704.585 595.71,525.214 642.845,602.494 	"/>
	<polygon display="inline" fill="#1C7400" points="584.878,575.248 448.474,525.808 595.71,525.214 	"/>
	<polygon display="inline" fill="#3E9E00" points="448.474,525.808 422.724,414.974 595.71,525.214 	"/>
	<polygon display="inline" fill="#B4DF88" points="448.474,525.808 374.089,394.228 422.724,414.974 	"/>
	<polygon display="inline" fill="#07025C" points="747.957,607.015 595.71,525.214 715.738,547.773 	"/>
	<polygon display="inline" fill="#000E43" points="715.738,547.773 595.71,525.214 671.582,474.447 	"/>
	<polygon display="inline" fill="#0050A8" points="595.71,525.214 422.725,414.974 611.927,425.39 	"/>
	<polygon display="inline" fill="#001E6D" points="595.71,525.214 611.927,425.39 671.582,474.447 	"/>
	<polygon display="inline" fill="#FFC700" points="332.927,241.643 429.433,309.608 374.089,394.228 	"/>
	<polygon display="inline" fill="#B70000" points="332.927,241.643 400.349,206.918 429.433,309.608 	"/>
	<polygon display="inline" fill="#C80000" points="332.927,241.643 400.349,206.918 308.634,182.658 	"/>
	<polygon display="inline" fill="#EA0000" points="218.583,202.014 332.928,241.643 308.634,182.658 	"/>
	<polygon display="inline" fill="#FA251C" points="36.556,140.721 226.199,234.363 218.583,202.014 	"/>
	<polygon display="inline" fill="#FF8C00" points="316.865,352.101 374.09,394.228 332.927,241.643 	"/>
	<polygon display="inline" fill="#D80000" points="218.583,202.014 226.199,234.363 332.928,241.643 	"/>
	<polygon display="inline" fill="#F20600" points="226.199,234.363 286.488,416.284 316.865,352.102 	"/>
	<polygon display="inline" fill="#66D6D7" points="412.255,552.482 332.696,479.21 448.474,525.808 	"/>
	<polygon display="inline" fill="#A70000" points="226.199,234.363 316.865,352.102 332.927,241.644 	"/>
	<rect x="158.509" y="852.886" display="inline" fill="#FFC700" width="631.377" height="60"/>
	<g display="inline">
		<g>
			<defs>
				<rect id="SVGID_1_" x="-134.114" y="-134.114" width="1200" height="1200"/>
			</defs>
			<clipPath id="SVGID_2_">
				<use xlink:href="#SVGID_1_"  overflow="visible"/>
			</clipPath>
			<path clip-path="url(#SVGID_2_)" fill="#001E6D" d="M216.218,809.136v7.996c0,14.141-6.665,21.207-19.989,21.207h-10.778
				c-13.328,0-19.99-7.066-19.99-21.207V734.74c0-14.137,6.662-21.205,19.99-21.205h10.778c13.324,0,19.989,7.068,19.989,21.205
				v14.08h-16.687v-12.863c0-4.867-2.494-7.301-7.474-7.301h-3.303c-4.405,0-6.605,2.434-6.605,7.301v79.961
				c0,4.867,2.2,7.301,6.605,7.301h4.172c4.402,0,6.605-2.434,6.605-7.301v-6.779h16.687V809.136z"/>
		</g>
		<g>
			<defs>
				<rect id="SVGID_3_" x="-134.114" y="-134.114" width="1200" height="1200"/>
			</defs>
			<clipPath id="SVGID_4_">
				<use xlink:href="#SVGID_3_"  overflow="visible"/>
			</clipPath>
			<polygon clip-path="url(#SVGID_4_)" fill="#001E6D" points="266.454,838.339 266.454,781.673 245.943,781.673 245.943,838.339 
				229.255,838.339 229.255,713.533 245.943,713.533 245.943,766.55 266.454,766.55 266.454,713.533 283.141,713.533 
				283.141,838.339 			"/>
		</g>
		<g>
			<defs>
				<rect id="SVGID_5_" x="-134.114" y="-134.114" width="1200" height="1200"/>
			</defs>
			<clipPath id="SVGID_6_">
				<use xlink:href="#SVGID_5_"  overflow="visible"/>
			</clipPath>
			<path clip-path="url(#SVGID_6_)" fill="#001E6D" d="M353.018,713.533v101.168c0,15.762-6.722,23.641-20.162,23.641h-14.08
				c-13.328,0-19.99-7.938-19.99-23.814V713.533h16.687v101.516c0,5.447,2.435,8.17,7.302,8.17h6.778
				c4.521,0,6.779-2.723,6.779-8.17V713.533H353.018z"/>
		</g>
		<g>
			<defs>
				<rect id="SVGID_7_" x="-134.114" y="-134.114" width="1200" height="1200"/>
			</defs>
			<clipPath id="SVGID_8_">
				<use xlink:href="#SVGID_7_"  overflow="visible"/>
			</clipPath>
			<path clip-path="url(#SVGID_8_)" fill="#001E6D" d="M368.662,713.533h30.419c13.442,0,20.164,7.127,20.164,21.381v37.025
				c0,14.141-6.666,21.207-19.99,21.207h-13.906v45.193h-16.687V713.533z M385.349,778.023h10.604c4.402,0,6.604-2.434,6.604-7.301
				v-34.766c0-4.867-2.493-7.301-7.475-7.301h-9.734V778.023z"/>
		</g>
		<g>
			<defs>
				<rect id="SVGID_9_" x="-134.114" y="-134.114" width="1200" height="1200"/>
			</defs>
			<clipPath id="SVGID_10_">
				<use xlink:href="#SVGID_9_"  overflow="visible"/>
			</clipPath>
			<path clip-path="url(#SVGID_10_)" fill="#001E6D" d="M448.273,838.339h-16.688V734.914c0-14.254,6.663-21.381,19.991-21.381
				h12.515c13.325,0,19.99,7.127,19.99,21.381v103.426h-16.687v-45.715h-19.121V838.339z M467.395,777.501v-41.545
				c0-4.867-2.435-7.301-7.302-7.301h-4.519c-4.867,0-7.301,2.434-7.301,7.301v41.545H467.395z"/>
		</g>
		<g>
			<defs>
				<rect id="SVGID_11_" x="-134.114" y="-134.114" width="1200" height="1200"/>
			</defs>
			<clipPath id="SVGID_12_">
				<use xlink:href="#SVGID_11_"  overflow="visible"/>
			</clipPath>
			<polygon clip-path="url(#SVGID_12_)" fill="#001E6D" points="532.75,786.888 548.22,713.535 566.646,713.535 566.646,838.339 
				549.958,838.339 551.697,756.642 539.181,815.744 526.319,815.744 513.803,756.642 515.542,838.339 498.855,838.339 
				498.855,713.535 517.28,713.535 			"/>
		</g>
		<g>
			<defs>
				<rect id="SVGID_13_" x="-134.114" y="-134.114" width="1200" height="1200"/>
			</defs>
			<clipPath id="SVGID_14_">
				<use xlink:href="#SVGID_13_"  overflow="visible"/>
			</clipPath>
			<rect x="582.29" y="713.533" clip-path="url(#SVGID_14_)" fill="#001E6D" width="16.687" height="124.809"/>
		</g>
		<g>
			<defs>
				<rect id="SVGID_15_" x="-134.114" y="-134.114" width="1200" height="1200"/>
			</defs>
			<clipPath id="SVGID_16_">
				<use xlink:href="#SVGID_15_"  overflow="visible"/>
			</clipPath>
			<path clip-path="url(#SVGID_16_)" fill="#001E6D" d="M614.621,713.533H647.3c12.746,0,19.12,7.127,19.12,21.381v30.768
				c0,10.895-3.303,17.791-9.908,20.688l11.646,51.973H652.34l-10.95-50.408h-10.082v50.408h-16.687V713.533z M631.307,773.677
				h10.951c4.98,0,7.476-3.014,7.476-9.039v-26.943c0-6.023-2.494-9.039-7.476-9.039h-10.951V773.677z"/>
		</g>
		<g>
			<defs>
				<rect id="SVGID_17_" x="-134.114" y="-134.114" width="1200" height="1200"/>
			</defs>
			<clipPath id="SVGID_18_">
				<use xlink:href="#SVGID_17_"  overflow="visible"/>
			</clipPath>
			<polygon clip-path="url(#SVGID_18_)" fill="#001E6D" points="706.919,728.656 706.919,838.339 690.232,838.339 690.232,728.656 
				674.24,728.656 674.24,713.533 722.911,713.533 722.911,728.656 			"/>
		</g>
		<g>
			<defs>
				<rect id="SVGID_19_" x="-134.114" y="-134.114" width="1200" height="1200"/>
			</defs>
			<clipPath id="SVGID_20_">
				<use xlink:href="#SVGID_19_"  overflow="visible"/>
			</clipPath>
			<path clip-path="url(#SVGID_20_)" fill="#001E6D" d="M751.765,838.339c-13.443,0-20.163-7.066-20.163-21.207v-82.219
				c0-14.254,6.661-21.381,19.989-21.381h15.992c13.324,0,19.99,7.127,19.99,21.381v82.219c0,14.141-6.724,21.207-20.164,21.207
				H751.765L751.765,838.339z M755.763,823.216h8.519c4.401,0,6.604-2.434,6.604-7.301v-79.959c0-4.867-2.492-7.301-7.474-7.301
				h-7.822c-4.867,0-7.301,2.434-7.301,7.301v79.959C748.289,820.785,750.779,823.216,755.763,823.216"/>
		</g>
		<g>
			<defs>
				<rect id="SVGID_21_" x="-134.114" y="-134.114" width="1200" height="1200"/>
			</defs>
			<clipPath id="SVGID_22_">
				<use xlink:href="#SVGID_21_"  overflow="visible"/>
			</clipPath>
			<path clip-path="url(#SVGID_22_)" fill="#020202" d="M192.809,882.019c0,4.422,0.052,16.434,0.26,17.941
				c1.248,0.207,4.992,0.572,6.604,0.729l0.26,1.092c-1.716-0.104-7.54-0.207-9.933-0.207c-2.599,0-7.54,0.104-8.996,0.207
				l0.208-1.092c0.781-0.104,4.16-0.469,5.513-0.729c0.207-2.289,0.26-13.365,0.26-18.201v-2.08c0-1.664-0.053-11.129-0.26-12.895
				c-0.988-0.365-4.316-0.625-5.564-0.73l-0.157-1.092c1.561,0,9.153-0.051,11.545-0.051c5.668,0,9.985,0.467,12.532,1.508
				c4.628,1.924,5.096,5.096,5.096,6.396c0,3.535-1.508,6.188-3.588,8.268c-3.432,3.432-9.048,4.836-10.921,5.096l0.157-1.299
				c1.872-0.469,8.164-2.34,8.164-10.193c0-3.172-1.56-5.77-4.212-7.07c-1.716-0.832-4.42-1.146-6.708-1.146
				c-0.208,1.508-0.26,8.895-0.26,13.365V882.019L192.809,882.019z"/>
		</g>
		<g>
			<defs>
				<rect id="SVGID_23_" x="-134.114" y="-134.114" width="1200" height="1200"/>
			</defs>
			<clipPath id="SVGID_24_">
				<use xlink:href="#SVGID_23_"  overflow="visible"/>
			</clipPath>
			<path clip-path="url(#SVGID_24_)" fill="#020202" d="M230.561,879.626c0-1.871-0.053-11.854-0.261-12.844
				c-0.884-0.207-4.42-0.521-5.563-0.623l-0.157-1.094l11.233-0.053c4.939,0,11.128,0.053,14.664,1.457
				c2.756,1.092,4.472,3.068,4.472,5.93c0,3.275-3.328,7.592-7.332,9.826c0.572,1.303,8.944,14.928,14.352,20.646l-2.287,0.365
				c-3.641-1.666-17.473-17.631-18.305-18.723c-1.976,0.156-4.108,0.312-4.992,0.312v1.352c0,3.379,0.104,11.391,0.26,13.779
				c0.884,0.262,4.316,0.625,5.46,0.73l0.208,1.092c-1.3-0.105-6.553-0.209-8.945-0.209c-2.131,0-7.592,0.104-8.788,0.209
				l0.208-1.092c0.728-0.053,4.056-0.365,5.512-0.73c0.208-1.508,0.261-11.699,0.261-17.16V879.626z M236.385,883.216
				c1.871,0,4.107-0.156,6.344-0.988c2.236-0.832,5.927-3.225,5.927-8.371c0-3.328-3.015-7.387-12.011-7.387
				c-0.156,2.133-0.26,11.441-0.26,15.133V883.216z"/>
		</g>
		<g>
			<defs>
				<rect id="SVGID_25_" x="-134.114" y="-134.114" width="1200" height="1200"/>
			</defs>
			<clipPath id="SVGID_26_">
				<use xlink:href="#SVGID_25_"  overflow="visible"/>
			</clipPath>
			<path clip-path="url(#SVGID_26_)" fill="#020202" d="M279.284,896.582c-3.797-3.9-4.993-7.697-4.993-12.584
				c0-10.297,8.477-19.658,22.828-19.658c5.513,0,9.881,0.885,14.406,4.213c4.107,3.018,6.292,8.061,6.292,12.896
				c0,12.738-9.673,20.957-22.465,20.957C290.1,902.406,284.119,901.521,279.284,896.582 M311.473,885.246
				c0-11.025-7.645-18.93-16.277-18.93c-7.124,0-14.924,4.783-14.924,15.496c0,9.309,7.488,18.461,17.628,18.461
				C305.336,900.273,311.473,893.566,311.473,885.246"/>
		</g>
		<g>
			<defs>
				<rect id="SVGID_27_" x="-134.114" y="-134.114" width="1200" height="1200"/>
			</defs>
			<clipPath id="SVGID_28_">
				<use xlink:href="#SVGID_27_"  overflow="visible"/>
			</clipPath>
			<path clip-path="url(#SVGID_28_)" fill="#020202" d="M338.512,879.679c0-2.34-0.104-11.855-0.363-12.895
				c-1.354-0.26-4.266-0.625-5.514-0.73l-0.103-1.092c0.78,0.105,6.396,0.209,8.58,0.209c1.819,0,8.009-0.209,12.013-0.209
				c6.084,0,11.232,0.73,14.665,2.395c6.084,2.91,8.527,7.852,8.527,12.584c0,10.973-8.633,21.734-28.602,21.734
				c-2.912,0-13.936,0.053-15.184,0.105l0.208-1.092c0.988-0.053,4.16-0.365,5.408-0.73c0.26-0.883,0.363-10.139,0.363-16.172
				V879.679z M344.44,884.255c0,2.809,0.155,12.584,0.363,14.457c2.288,0.883,4.317,0.938,5.668,0.938
				c9.934,0,19.449-5.824,19.449-16.9c0-4.422-1.352-8.789-5.669-12.014c-3.795-2.809-10.036-3.85-14.872-3.85
				c-1.196,0-3.483,0.105-4.576,0.312c-0.155,0.779-0.363,12.74-0.363,15.027V884.255z"/>
		</g>
		<g>
			<defs>
				<rect id="SVGID_29_" x="-134.114" y="-134.114" width="1200" height="1200"/>
			</defs>
			<clipPath id="SVGID_30_">
				<use xlink:href="#SVGID_29_"  overflow="visible"/>
			</clipPath>
			<path clip-path="url(#SVGID_30_)" fill="#020202" d="M396.127,878.537c0-4.68-0.104-10.297-0.26-11.752
				c-1.093-0.26-2.705-0.521-4.108-0.73l-0.155-1.092c1.455,0.105,4.783,0.209,8.787,0.209c2.393,0,6.396-0.104,7.696-0.209
				l-0.26,1.092c-1.404,0.156-3.744,0.416-5.408,0.73c-0.156,0.883-0.26,7.486-0.26,11.959v6.918
				c0,11.021,4.68,14.768,10.296,14.768c3.433,0,5.721-0.832,7.488-2.498c2.809-2.648,3.484-7.227,3.484-13.467v-4.783
				c0-1.664-0.052-11.182-0.26-12.896c-1.196-0.207-4.316-0.623-5.668-0.729l-0.364-1.092c1.3,0.104,5.2,0.207,8.424,0.207
				c2.704,0,5.46-0.104,6.345-0.207l-0.312,1.092c-0.884,0.207-2.288,0.416-3.64,0.729c-0.156,0.779-0.261,7.281-0.261,8.684v2.496
				c0,2.029,0.104,4.525,0.104,6.396c0,5.877-1.092,10.869-5.097,14.404c-2.392,2.133-5.719,3.641-10.868,3.641
				c-10.765,0-15.704-6.656-15.704-15.756V878.537L396.127,878.537z"/>
		</g>
		<g>
			<defs>
				<rect id="SVGID_31_" x="-134.114" y="-134.114" width="1200" height="1200"/>
			</defs>
			<clipPath id="SVGID_32_">
				<use xlink:href="#SVGID_31_"  overflow="visible"/>
			</clipPath>
			<path clip-path="url(#SVGID_32_)" fill="#020202" d="M481.409,876.507c0-0.988-0.156-3.432-0.312-4.314
				c-0.988-2.287-5.825-6.033-12.532-6.033c-9.465,0-15.444,6.865-15.444,14.977c0,10.141,8.372,18.723,19.345,18.723
				c3.952,0,8.633-0.625,12.324-2.811l-0.729,2.236c-1.195,0.988-6.448,3.121-14.612,3.121c-1.924,0-7.593-0.209-11.806-2.289
				c-6.759-3.328-10.763-9.256-10.763-15.912c0-7.176,3.64-12.48,8.216-15.549c5.408-3.641,10.245-4.316,15.497-4.316
				c4.576,0,9.412,0.938,10.868,1.354c0.312-0.678,0.938-4.004,1.092-4.629l1.196-0.26c-0.78,5.721-1.092,11.129-1.145,16.068
				L481.409,876.507z"/>
		</g>
		<g>
			<defs>
				<rect id="SVGID_33_" x="-134.114" y="-134.114" width="1200" height="1200"/>
			</defs>
			<clipPath id="SVGID_34_">
				<use xlink:href="#SVGID_33_"  overflow="visible"/>
			</clipPath>
			<path clip-path="url(#SVGID_34_)" fill="#020202" d="M532.577,876.507c0-0.988-0.156-3.432-0.312-4.314
				c-0.988-2.287-5.824-6.033-12.532-6.033c-9.465,0-15.444,6.865-15.444,14.977c0,10.141,8.372,18.723,19.345,18.723
				c3.952,0,8.633-0.625,12.324-2.811l-0.729,2.236c-1.195,0.988-6.448,3.121-14.612,3.121c-1.924,0-7.592-0.209-11.806-2.289
				c-6.76-3.328-10.764-9.256-10.764-15.912c0-7.176,3.641-12.48,8.216-15.549c5.408-3.641,10.245-4.316,15.497-4.316
				c4.576,0,9.412,0.938,10.868,1.354c0.312-0.678,0.937-4.004,1.092-4.629l1.196-0.26c-0.78,5.721-1.092,11.129-1.146,16.068
				L532.577,876.507z"/>
		</g>
		<g>
			<defs>
				<rect id="SVGID_35_" x="-134.114" y="-134.114" width="1200" height="1200"/>
			</defs>
			<clipPath id="SVGID_36_">
				<use xlink:href="#SVGID_35_"  overflow="visible"/>
			</clipPath>
			<path clip-path="url(#SVGID_36_)" fill="#020202" d="M562.058,883.476c0,6.762,0.053,15.443,0.262,16.484
				c1.3,0.312,4.42,0.623,5.46,0.729l0.26,1.092c-1.145-0.104-6.552-0.207-9.776-0.207c-1.768,0-6.553,0.104-8.111,0.207
				l0.208-1.092c0.884-0.053,4.42-0.521,5.512-0.729c0.21-2.184,0.261-11.805,0.261-16.9v-3.068c0-1.715-0.051-11.439-0.261-13.207
				c-1.04-0.209-4.472-0.625-5.46-0.73l-0.26-1.092c0.987,0.105,5.771,0.209,9.88,0.209c2.651,0,7.125-0.104,8.009-0.209
				l-0.26,1.092c-1.04,0.105-3.589,0.521-5.46,0.73c-0.209,1.039-0.262,7.072-0.262,13.469L562.058,883.476L562.058,883.476z"/>
		</g>
		<g>
			<defs>
				<rect id="SVGID_37_" x="-134.114" y="-134.114" width="1200" height="1200"/>
			</defs>
			<clipPath id="SVGID_38_">
				<use xlink:href="#SVGID_37_"  overflow="visible"/>
			</clipPath>
			<path clip-path="url(#SVGID_38_)" fill="#020202" d="M588.006,896.582c-3.797-3.9-4.992-7.697-4.992-12.584
				c0-10.297,8.478-19.658,22.827-19.658c5.515,0,9.882,0.885,14.406,4.213c4.108,3.018,6.292,8.061,6.292,12.896
				c0,12.738-9.672,20.957-22.465,20.957C598.823,902.406,592.841,901.521,588.006,896.582 M620.196,885.246
				c0-11.025-7.646-18.93-16.277-18.93c-7.124,0-14.924,4.783-14.924,15.496c0,9.309,7.488,18.461,17.628,18.461
				C614.059,900.273,620.196,893.566,620.196,885.246"/>
		</g>
		<g>
			<defs>
				<rect id="SVGID_39_" x="-134.114" y="-134.114" width="1200" height="1200"/>
			</defs>
			<clipPath id="SVGID_40_">
				<use xlink:href="#SVGID_39_"  overflow="visible"/>
			</clipPath>
			<path clip-path="url(#SVGID_40_)" fill="#020202" d="M641.358,865.171c2.911-0.104,7.801-0.156,11.855-0.365
				c1.145,1.77,11.597,14.873,12.48,15.811c1.352,1.455,9.62,11.492,11.283,12.895c0-5.77-0.052-24.023-1.092-26.729
				c-1.04-0.207-3.796-0.623-5.252-0.729l-0.261-1.092c0.988,0.104,6.604,0.207,7.749,0.207c1.144,0,5.46-0.104,6.552-0.207
				l-0.208,1.092c-0.676,0.104-2.548,0.521-3.952,0.729c-0.624,2.027-0.885,9.359-0.986,11.023
				c-0.156,2.445-0.572,24.285-0.886,26.365c-1.56-1.455-15.965-18.252-17.159-19.604c-0.729-0.781-10.608-12.846-12.324-14.82
				c-0.156,1.039,0.468,28.34,1.144,30.213c0.78,0.26,4.682,0.623,5.668,0.729l0.156,1.092c-0.937-0.104-6.345-0.207-7.696-0.207
				c-1.509,0-5.563,0.104-7.071,0.207l0.155-1.092c1.456-0.207,3.12-0.363,4.316-0.729c0.884-2.184,1.455-31.357,1.455-33.074
				c-1.195-0.26-3.744-0.52-5.72-0.623L641.358,865.171z"/>
		</g>
		<g>
			<defs>
				<rect id="SVGID_41_" x="-134.114" y="-134.114" width="1200" height="1200"/>
			</defs>
			<clipPath id="SVGID_42_">
				<use xlink:href="#SVGID_41_"  overflow="visible"/>
			</clipPath>
			<path clip-path="url(#SVGID_42_)" fill="#020202" d="M705.37,881.343c0-4.68-0.156-12.949-0.364-14.561
				c-0.988-0.207-4.16-0.572-5.408-0.729l-0.208-1.092c1.248,0.051,2.964,0.104,4.681,0.156c1.717,0,3.433,0.051,4.575,0.051
				c1.663,0,13.886,0,15.288-0.363c0.157-0.625,0.313-1.508,0.416-2.443l1.197-0.209c-0.261,1.094-0.937,9.152-1.04,10.766
				l-1.145-0.365c0-0.361,0.053-2.703,0-3.744c-0.937-1.508-8.944-2.184-11.7-2.184c-0.156,0.73-0.364,10.766-0.364,13.832v1.041
				c4.474,0,9.518-0.363,10.765-0.832c0.261-0.779,0.416-1.508,0.521-2.236l1.092-0.104c-0.157,0.938-1.092,8.061-1.353,9.725
				l-0.987-0.416c0.052-1.092,0.104-2.443,0.104-3.482c-1.611-0.832-5.668-1.145-10.141-1.145v1.039
				c0,3.172,0.208,14.51,0.364,16.018c5.2,0,10.089-0.416,12.479-1.77c0.572-1.818,0.831-3.432,1.145-4.576l1.195-0.311
				c-0.363,1.508-1.509,9.412-1.717,12.012l-1.091-0.207c0-1.404,0-2.342-0.053-3.174c-1.508-0.26-13.052-0.467-16.328-0.467
				c-1.768,0-5.876,0.104-7.904,0.207l0.261-1.092c0.832-0.053,3.951-0.363,5.355-0.729c0.208-0.936,0.364-10.504,0.364-16.225
				V881.343z"/>
		</g>
		<g>
			<defs>
				<rect id="SVGID_43_" x="-134.114" y="-134.114" width="1200" height="1200"/>
			</defs>
			<clipPath id="SVGID_44_">
				<use xlink:href="#SVGID_43_"  overflow="visible"/>
			</clipPath>
			<path clip-path="url(#SVGID_44_)" fill="#020202" d="M743.693,906.826c0.104-0.729,0.832-6.5,0.832-8.529
				c0-1.352,0.312-6.967,0.154-8.215l1.196,0.311c-0.052,0.678,0.208,3.643,0.364,4.576c1.404,3.328,4.473,5.67,8.06,5.67
				c4.108,0,7.386-2.705,7.386-6.553c0-4.213-3.276-6.293-6.656-8.477c-5.097-3.328-9.152-6.24-9.152-12.117
				c0-4.057,3.018-9.152,10.712-9.152c3.068,0,5.773,0.625,7.021,0.938c0.362-1.248,0.622-2.809,0.936-4.213l1.196-0.156
				c-0.729,5.148-1.248,9.984-1.248,14.25l-1.197-0.521c0-1.768-0.104-3.016-0.208-3.951c-0.571-1.873-3.274-4.682-6.916-4.682
				c-4.472,0-6.344,2.861-6.344,5.201c0,3.379,3.536,5.199,7.487,7.695c4.315,2.703,8.686,5.615,8.686,12.17
				c0,7.227-5.72,11.336-12.792,11.336c-2.496,0-5.721-0.52-7.177-1.301c-0.26,0.986-0.78,3.482-1.145,5.408L743.693,906.826z"/>
		</g>
	</g>
</g>
<g id="Layer_2">
	<polygon fill="#FFC700" points="374.089,394.228 500.884,281.068 422.724,414.974 	"/>
	<polygon fill="#430253" points="422.724,414.974 622.994,377.483 611.927,425.39 	"/>
	<polygon fill="#85238E" points="422.724,414.974 676.949,315.841 622.994,377.483 	"/>
	<polygon fill="#FA008C" points="422.724,414.974 733.83,253.811 676.949,315.841 	"/>
	<polygon fill="#F2008C" points="500.884,281.068 859.771,15.2 839.229,119.03 	"/>
	<polygon fill="#FF67C7" points="500.884,281.068 839.229,119.03 733.83,253.812 	"/>
	<polygon fill="#E10050" points="422.724,414.974 500.884,281.068 733.83,253.811 	"/>
	<polygon fill="#FFE000" points="429.433,309.608 500.884,281.067 374.089,394.229 	"/>
	<polygon fill="#FFC700" points="429.433,309.608 859.771,15.201 500.884,281.067 	"/>
	<polygon fill="#FFF900" points="429.433,309.608 743.867,64.321 859.771,15.201 	"/>
</g>
</svg>
